Coordinates
version=1
nRows=16
nColumns=40
inDegrees=yes

Units are S.I. units (second, meters, Newtons, ...)
If the header above contains a line with 'inDegrees', this indicates whether rotational values are in degrees (yes) or radians (no).

endheader
time	pelvis_tilt	pelvis_list	pelvis_rotation	pelvis_tx	pelvis_ty	pelvis_tz	hip_flexion_r	hip_adduction_r	hip_rotation_r	knee_angle_r	knee_angle_r_beta	ankle_angle_r	subtalar_angle_r	mtp_angle_r	hip_flexion_l	hip_adduction_l	hip_rotation_l	knee_angle_l	knee_angle_l_beta	ankle_angle_l	subtalar_angle_l	mtp_angle_l	lumbar_extension	lumbar_bending	lumbar_rotation	arm_flex_r	arm_add_r	arm_rot_r	elbow_flex_r	pro_sup_r	wrist_flex_r	wrist_dev_r	arm_flex_l	arm_add_l	arm_rot_l	elbow_flex_l	pro_sup_l	wrist_flex_l	wrist_dev_l
      2.69500000	    -34.58942820	      5.39960078	     -9.06032336	     -0.41665417	      0.62619353	     -0.88657014	    106.17641573	    -14.20099866	      7.93838208	    101.65114322	      1.77414714	     30.69784793	      0.00000000	      0.00000000	    105.17596741	    -35.83452644	      2.17565652	    101.78640734	      1.77650794	     32.99581530	      0.00000000	      0.00000000	    -20.56177205	     -8.48810058	      5.42723091	     16.09403035	    -52.28445286	     89.46738621	     86.87477790	     88.66104977	      0.00000000	      0.00000000	     11.17089410	    -58.96399495	     89.43758974	     94.29901798	     86.64825251	      0.00000000	      0.00000000
      2.70000000	    -34.58302094	      5.47427629	     -9.16650734	     -0.41625161	      0.62617616	     -0.88613946	    106.17380965	    -13.98487667	      8.05777284	    101.69377205	      1.77489115	     30.73032184	      0.00000000	      0.00000000	    105.09258560	    -36.02198475	      2.08991415	    101.80528551	      1.77683743	     33.04138305	      0.00000000	      0.00000000	    -20.51054437	     -8.65471669	      5.47117324	     16.12037218	    -52.22685133	     89.46940178	     86.87111194	     88.67358390	      0.00000000	      0.00000000	     11.10257713	    -59.01105081	     89.43922982	     94.31065287	     86.41761782	      0.00000000	      0.00000000
      2.70500000	    -34.60474491	      5.50836419	     -9.06272040	     -0.41581613	      0.62614556	     -0.88635693	    106.19957743	    -14.04930961	      8.17178935	    101.72398194	      1.77541841	     30.75887661	      0.00000000	      0.00000000	    105.04378189	    -35.90633544	      2.01920179	    101.82086506	      1.77710934	     33.07994463	      0.00000000	      0.00000000	    -20.46041041	     -8.67528273	      5.34260993	     16.15439653	    -52.23422241	     89.47161084	     86.86644021	     88.66858670	      0.00000000	      0.00000000	     11.08298638	    -59.01393218	     89.43832057	     94.31369422	     86.40362799	      0.00000000	      0.00000000
      2.71000000	    -34.67198654	      5.40277636	     -8.88981322	     -0.41546159	      0.62610958	     -0.88667405	    106.18542679	    -14.19945792	      8.14242587	    101.75647461	      1.77598552	     30.83066156	      0.00000000	      0.00000000	    105.13802730	    -35.69766636	      2.11301970	    101.81240662	      1.77696171	     33.05908940	      0.00000000	      0.00000000	    -20.39434695	     -8.51405787	      5.22883191	     16.15276796	    -52.29014374	     89.46732287	     86.92444944	     88.67624326	      0.00000000	      0.00000000	     11.12628108	    -58.96222169	     89.44120526	     94.25887058	     86.52806912	      0.00000000	      0.00000000
      2.71500000	    -34.68801414	      5.46975734	     -8.84461689	     -0.41505766	      0.62612448	     -0.88669880	    106.21388880	    -14.17610435	      8.28708378	    101.80003135	      1.77674573	     30.86558207	      0.00000000	      0.00000000	    105.05209749	    -35.68884297	      1.96921101	    101.80428044	      1.77681989	     33.08323435	      0.00000000	      0.00000000	    -20.33584290	     -8.59531375	      5.13432910	     16.19203386	    -52.28792631	     89.47132505	     86.92617541	     88.67300507	      0.00000000	      0.00000000	     11.07825502	    -58.99048369	     89.44189567	     94.32057839	     86.45233575	      0.00000000	      0.00000000
      2.72000000	    -34.77517408	      5.41339640	     -8.64850395	     -0.41462823	      0.62613877	     -0.88708290	    106.24004142	    -14.35102405	      8.31257075	    101.81599067	      1.77702427	     30.94807534	      0.00000000	      0.00000000	    105.09491451	    -35.45302998	      1.98074418	    101.75745122	      1.77600256	     33.10069464	      0.00000000	      0.00000000	    -20.24362877	     -8.47620696	      4.96179600	     16.21951326	    -52.30478782	     89.46729017	     86.91451653	     88.65724043	      0.00000000	      0.00000000	     11.04447352	    -58.92965125	     89.44195036	     94.25240443	     86.67179252	      0.00000000	      0.00000000
      2.72500000	    -34.76747990	      5.42673184	     -8.68329686	     -0.41424389	      0.62618551	     -0.88678660	    106.20784075	    -14.23440436	      8.36733191	    101.84620813	      1.77755166	     30.92513367	      0.00000000	      0.00000000	    105.04731126	    -35.52796241	      1.97128605	    101.77273674	      1.77626934	     33.19304471	      0.00000000	      0.00000000	    -20.19903037	     -8.55258617	      4.95846606	     16.22987130	    -52.25849873	     89.47046784	     86.88159109	     88.67143243	      0.00000000	      0.00000000	     11.01483366	    -59.00216423	     89.43839377	     94.30586273	     86.50281198	      0.00000000	      0.00000000
      2.73000000	    -34.80369818	      5.39860687	     -8.80642753	     -0.41391870	      0.62634491	     -0.88626835	    106.14248608	    -14.02597875	      8.31895504	    101.81976016	      1.77709006	     31.02974939	      0.00000000	      0.00000000	    105.10986530	    -35.74346105	      2.02390928	    101.77652212	      1.77633541	     33.06013089	      0.00000000	      0.00000000	    -20.11491890	     -8.59671674	      5.05214287	     16.28761831	    -52.22698564	     89.46718008	     86.87821253	     88.67001314	      0.00000000	      0.00000000	     10.94921898	    -58.99888251	     89.44339176	     94.28404981	     86.39611807	      0.00000000	      0.00000000
      2.73500000	    -34.92000695	      5.47345596	     -8.39532152	     -0.41356398	      0.62615544	     -0.88735297	    106.33687998	    -14.45791034	      8.54507058	    101.89872126	      1.77846819	     31.06491640	      0.00000000	      0.00000000	    105.04253274	    -35.26059959	      1.75168188	    101.71377072	      1.77524019	     33.19659901	      0.00000000	      0.00000000	    -19.97179060	     -8.51952657	      4.61890810	     16.29682142	    -52.24819428	     89.46881010	     86.85864583	     88.70080470	      0.00000000	      0.00000000	     10.82250537	    -58.96518253	     89.43462361	     94.20356179	     86.50601167	      0.00000000	      0.00000000
      2.74000000	    -34.85488336	      5.41635148	     -8.58256852	     -0.41316761	      0.62657122	     -0.88660482	    106.14588156	    -14.17528108	      8.46859521	    101.85351942	      1.77767927	     31.14294969	      0.00000000	      0.00000000	    105.00623118	    -35.53370261	      1.85736085	    101.72021844	      1.77535273	     33.11994274	      0.00000000	      0.00000000	    -20.01996497	     -8.58609331	      4.76956948	     16.36321890	    -52.22286985	     89.47262487	     86.87820240	     88.67080239	      0.00000000	      0.00000000	     10.83662858	    -59.00856008	     89.44179293	     94.20209129	     86.53910871	      0.00000000	      0.00000000
      2.74500000	    -35.01054223	      5.43631914	     -8.33011302	     -0.41299362	      0.62648043	     -0.88722507	    106.30078496	    -14.39223616	      8.59083837	    101.86362765	      1.77785569	     31.14422658	      0.00000000	      0.00000000	    105.09347831	    -35.23608838	      1.75872409	    101.66279511	      1.77435050	     33.02394099	      0.00000000	      0.00000000	    -19.82980592	     -8.51332694	      4.51772034	     16.36100730	    -52.21839591	     89.46565135	     86.81222631	     88.71392175	      0.00000000	      0.00000000	     10.69215209	    -59.00150293	     89.43643105	     94.18716119	     86.29305300	      0.00000000	      0.00000000
      2.75000000	    -34.94052451	      5.38430169	     -8.63740748	     -0.41258124	      0.62688240	     -0.88619824	    106.10071168	    -13.99781581	      8.45698814	    101.81191469	      1.77695313	     31.17291907	      0.00000000	      0.00000000	    105.05084853	    -35.67400462	      1.88413546	    101.68190473	      1.77468403	     33.07236225	      0.00000000	      0.00000000	    -19.84355847	     -8.62565210	      4.81849624	     16.38390009	    -52.19388101	     89.47013547	     86.83228376	     88.64819421	      0.00000000	      0.00000000	     10.80462607	    -59.03685838	     89.44523140	     94.24666576	     86.37900709	      0.00000000	      0.00000000
      2.75500000	    -34.95177848	      5.40405389	     -8.46045095	     -0.41213586	      0.62720537	     -0.88659220	    106.07907952	    -14.16749914	      8.54900174	    101.81715987	      1.77704467	     31.23365970	      0.00000000	      0.00000000	    104.92038090	    -35.48167329	      1.73567025	    101.61770235	      1.77356348	     33.11918069	      0.00000000	      0.00000000	    -19.84822298	     -8.60080971	      4.61786356	     16.41874602	    -52.19573995	     89.46867922	     86.85802797	     88.67766985	      0.00000000	      0.00000000	     10.74410404	    -59.02434290	     89.44064739	     94.24415037	     86.52787993	      0.00000000	      0.00000000
      2.76000000	    -35.05417778	      5.37497161	     -8.42307718	     -0.41194730	      0.62726215	     -0.88649896	    106.11819930	    -14.14468236	      8.52837668	    101.79884712	      1.77672506	     31.30192551	      0.00000000	      0.00000000	    105.01226092	    -35.48099258	      1.73859847	    101.56573909	      1.77265655	     33.11997800	      0.00000000	      0.00000000	    -19.69284945	     -8.58233083	      4.58963776	     16.41795156	    -52.18130014	     89.45471452	     86.83619471	     88.68611719	      0.00000000	      0.00000000	     10.72546944	    -59.05056724	     89.44793592	     94.21901569	     86.34911072	      0.00000000	      0.00000000
      2.76500000	    -35.01268923	      5.47665608	     -8.41223351	     -0.41149461	      0.62761145	     -0.88648124	    106.08512005	    -14.12292465	      8.66749629	    101.79549332	      1.77666652	     31.22718929	      0.00000000	      0.00000000	    104.81187691	    -35.51399649	      1.54206777	    101.55300241	      1.77243426	     33.09764579	      0.00000000	      0.00000000	    -19.70646112	     -8.71844163	      4.50456889	     16.46260599	    -52.13646193	     89.46863238	     86.79935877	     88.68412585	      0.00000000	      0.00000000	     10.66851100	    -59.07791238	     89.43422538	     94.27662460	     86.40337053	      0.00000000	      0.00000000
      2.77000000	    -35.12991511	      5.33987452	     -8.20847922	     -0.41121805	      0.62769314	     -0.88684979	    106.09109983	    -14.33261136	      8.57645373	    101.78923567	      1.77655731	     31.33041428	      0.00000000	      0.00000000	    104.96058642	    -35.28664132	      1.62725775	    101.49465076	      1.77141583	     33.07820157	      0.00000000	      0.00000000	    -19.58255179	     -8.50780293	      4.37222656	     16.44150625	    -52.17484945	     89.46400918	     86.80867557	     88.66515787	      0.00000000	      0.00000000	     10.69919064	    -59.01837063	     89.43675194	     94.23547363	     86.59767608	      0.00000000	      0.00000000
